<?xml version="1.0" encoding="UTF-8" standalone="no"?>
<svg
   fill-opacity="1"
   color-rendering="auto"
   color-interpolation="auto"
   text-rendering="auto"
   stroke="#000000"
   stroke-linecap="square"
   width="1600"
   stroke-miterlimit="10"
   shape-rendering="auto"
   stroke-opacity="1"
   fill="#000000"
   stroke-dasharray="none"
   font-weight="normal"
   stroke-width="1"
   height="2000"
   font-family="Dialog"
   font-style="normal"
   stroke-linejoin="miter"
   font-size="12px"
   stroke-dashoffset="0"
   image-rendering="auto"
   version="1.1"
   id="svg634"
   sodipodi:docname="Zwiebelmodell_v4.2.svg"
   inkscape:version="1.2 (dc2aedaf03, 2022-05-15)"
   xmlns:inkscape="http://www.inkscape.org/namespaces/inkscape"
   xmlns:sodipodi="http://sodipodi.sourceforge.net/DTD/sodipodi-0.dtd"
   xmlns:xlink="http://www.w3.org/1999/xlink"
   xmlns="http://www.w3.org/2000/svg"
   xmlns:svg="http://www.w3.org/2000/svg">
  <sodipodi:namedview
     id="namedview636"
     pagecolor="#ffffff"
     bordercolor="#000000"
     borderopacity="0.25"
     inkscape:showpageshadow="2"
     inkscape:pageopacity="0.0"
     inkscape:pagecheckerboard="0"
     inkscape:deskcolor="#d1d1d1"
     showgrid="false"
     inkscape:zoom="0.64603176"
     inkscape:cx="634.64372"
     inkscape:cy="730.61423"
     inkscape:window-width="1920"
     inkscape:window-height="1017"
     inkscape:window-x="-8"
     inkscape:window-y="-8"
     inkscape:window-maximized="1"
     inkscape:current-layer="svg634"
     showguides="true">
    <sodipodi:guide
       position="730,1270"
       orientation="-1,0"
       id="guide1254"
       inkscape:locked="false"
       inkscape:label=""
       inkscape:color="rgb(0,134,229)" />
    <sodipodi:guide
       position="730,1270"
       orientation="0,1"
       id="guide1256"
       inkscape:locked="false"
       inkscape:label=""
       inkscape:color="rgb(0,134,229)" />
  </sodipodi:namedview>
  <circle
     r="235.5"
     clip-path="url(#clipPath2)"
     cx="888.25"
     cy="512"
     stroke="none"
     id="circle602"
     transform="matrix(-0.95308667,-0.06664631,-0.06664631,0.95308667,1610.702,301.21823)"
     style="fill:#90caf9;stroke:#000000;stroke-width:3.14;stroke-dasharray:none;stroke-opacity:1;shape-rendering:geometricPrecision;text-rendering:geometricPrecision"
     inkscape:export-filename="Zwiebelmodell SVWS-Server und SVWS-Client.png"
     inkscape:export-xdpi="73.992538"
     inkscape:export-ydpi="73.992538" />
  <circle
     r="415.5"
     clip-path="url(#clipPath2)"
     cx="887.75"
     cy="512"
     stroke="none"
     id="circle20718"
     transform="matrix(-1.1267899,1.0145662,1.0145663,1.12679,1210.8498,-747.59761)"
     style="fill:none;fill-opacity:1;stroke:none;stroke-width:3.324;stroke-dasharray:none;stroke-opacity:1;shape-rendering:geometricPrecision;text-rendering:geometricPrecision" />
  <circle
     r="415.5"
     clip-path="url(#clipPath2)"
     cx="887.75"
     cy="512"
     stroke="none"
     id="circle20720"
     transform="matrix(-1.0194766,0.91794087,0.91794096,1.0194767,1165.0546,-606.87406)"
     style="fill:none;fill-opacity:1;stroke:none;stroke-width:3.324;stroke-dasharray:none;stroke-opacity:1;shape-rendering:geometricPrecision;text-rendering:geometricPrecision" />
  <circle
     r="415.5"
     clip-path="url(#clipPath2)"
     cx="887.75"
     cy="512"
     stroke="none"
     id="circle20722"
     transform="matrix(-0.91216328,0.82131551,0.8213156,0.91216336,1119.2594,-466.15046)"
     style="fill:none;fill-opacity:1;stroke:none;stroke-width:3.324;stroke-dasharray:none;stroke-opacity:1;shape-rendering:geometricPrecision;text-rendering:geometricPrecision" />
  <circle
     r="415.5"
     clip-path="url(#clipPath2)"
     cx="887.75"
     cy="512"
     stroke="none"
     id="circle20724"
     transform="matrix(-0.80484995,0.72469015,0.72469023,0.80485002,1073.4642,-325.42687)"
     style="fill:none;fill-opacity:1;stroke:none;stroke-width:3.324;stroke-dasharray:none;stroke-opacity:1;shape-rendering:geometricPrecision;text-rendering:geometricPrecision" />
  <circle
     r="158.5"
     clip-path="url(#clipPath2)"
     cx="887.75"
     cy="512"
     stroke="none"
     id="circle19409"
     transform="matrix(-1.7753045,-0.44263314,0.44263314,-1.7753045,2079.3983,2031.9034)"
     style="fill:#f4d7d7;fill-opacity:1;stroke:none;stroke-width:6.42094;stroke-dasharray:none;stroke-opacity:1;shape-rendering:geometricPrecision;text-rendering:geometricPrecision" />
  <circle
     r="415.5"
     clip-path="url(#clipPath2)"
     cx="887.75"
     cy="512"
     stroke="none"
     id="circle562"
     transform="matrix(-0.67070833,0.60390851,0.60390851,0.67070833,1016.22,-149.52241)"
     style="fill:#64b5f6;fill-opacity:1;stroke:#000000;stroke-width:3.324;stroke-dasharray:none;stroke-opacity:1;shape-rendering:geometricPrecision;text-rendering:geometricPrecision" />
  <path
     id="circle24516"
     clip-path="url(#clipPath2)"
     style="fill:#90caf9;stroke:#000000;stroke-width:3.14;stroke-dasharray:none;stroke-opacity:1;shape-rendering:geometricPrecision;text-rendering:geometricPrecision"
     d="M 916.63694 278.21731 A 235.5 235.5 0 0 1 1123.7491 511.9998 A 235.5 235.5 0 0 1 888.25001 747.4992 A 235.5 235.5 0 0 1 837.09067 741.13275 A 38.988333 38.988333 0 0 1 836.89238 741.09634 A 235.5 235.5 0 0 1 836.59285 741.04261 L 836.59907 741.0123 A 38.988333 38.988333 0 0 1 806.27785 700.28188 A 38.988333 38.988333 0 0 1 847.8909 664.10821 A 38.988333 38.988333 0 0 1 853.74539 664.99097 L 853.75161 664.96067 A 157 157 0 0 0 912.80952 667.06778 A 157 157 0 0 0 1043.3177 487.4403 A 157 157 0 0 0 890.99073 355.02342 A 157 157 0 0 0 863.69018 356.93216 A 157 157 0 0 0 732.74505 533.02074 L 732.63336 533.03547 A 39.092999 39.092999 0 0 1 732.98519 540.98662 A 39.092999 39.092999 0 0 1 691.26086 577.25702 A 39.092999 39.092999 0 0 1 655.34228 543.48385 L 655.23059 543.49858 A 235.5 235.5 0 0 1 655.09447 541.78203 A 39.092999 39.092999 0 0 1 654.99735 540.53338 A 235.5 235.5 0 0 1 652.75061 512.00013 A 235.5 235.5 0 0 1 888.24968 276.50073 A 235.5 235.5 0 0 1 916.63694 278.21731 z "
     transform="matrix(-0.95308667,-0.06664631,-0.06664631,0.95308667,1610.702,301.21823)" />
  <circle
     r="158.5"
     clip-path="url(#clipPath2)"
     cx="887.75"
     cy="512"
     stroke="none"
     id="circle610"
     transform="matrix(0.92211678,0.21288744,0.21288744,-0.92211678,-197.60776,1013.133)"
     style="fill:#bbdefb;stroke:#000000;stroke-width:3.17;stroke-dasharray:none;stroke-opacity:1;shape-rendering:geometricPrecision;text-rendering:geometricPrecision" />
  <text
     xml:space="preserve"
     style="font-style:normal;font-variant:normal;font-weight:normal;font-stretch:normal;font-size:26.6667px;line-height:0.9;font-family:Dialog;-inkscape-font-specification:Dialog;letter-spacing:4px;fill:#000000;fill-opacity:1;stroke:none"
     id="text2628"><textPath
       xlink:href="#circle610"
       id="textPath18626"><tspan
         id="tspan2626"
         dy="-22.423157"
         dx="583.00342 0 2.6140816 0.65352041 0 0 0.65352041">svws-db</tspan></textPath></text>
  <text
     xml:space="preserve"
     style="font-style:normal;font-variant:normal;font-weight:normal;font-stretch:normal;font-size:26.6667px;line-height:0;font-family:Dialog;-inkscape-font-specification:Dialog;letter-spacing:3.2px;writing-mode:lr-tb;fill:#000000;fill-opacity:1;stroke:none"
     id="text2682"><textPath
       xlink:href="#circle602"
       id="textPath18515"><tspan
         id="tspan2680"
         dy="-28.323997"
         style="writing-mode:lr-tb"
         dx="159.81071">db-utils</tspan></textPath></text>
  <text
     xml:space="preserve"
     style="font-style:normal;font-variant:normal;font-weight:normal;font-stretch:normal;font-size:26.6667px;line-height:1;font-family:Dialog;-inkscape-font-specification:Dialog;letter-spacing:2px;fill:#000000;fill-opacity:1;stroke:none"
     id="text2696"><textPath
       xlink:href="#circle562"
       id="textPath18924"
       dx="-7.7790017"
       dy="-10.372002">open-API</textPath></text>
  <g
     id="g1144"
     transform="translate(-2)">
    <rect
       style="fill:#ffffff;fill-opacity:1;stroke:#000000;stroke-width:2;stroke-dasharray:none;stroke-opacity:1"
       id="rect2598"
       width="240"
       height="60"
       x="386.83945"
       y="631.18433"
       ry="30" />
    <text
       xml:space="preserve"
       style="font-style:normal;font-variant:normal;font-weight:normal;font-stretch:normal;font-size:26.6667px;font-family:Dialog;-inkscape-font-specification:Dialog;text-align:center;text-anchor:middle;fill:#000000;fill-opacity:1;stroke:none"
       x="506.35944"
       y="670.70435"
       id="text2602"><tspan
         sodipodi:role="line"
         id="tspan2600"
         x="506.35944"
         y="670.70435">SVWS-Server</tspan></text>
  </g>
  <circle
     r="158.5"
     clip-path="url(#clipPath2)"
     cx="887.75"
     cy="512"
     stroke="none"
     id="circle924"
     transform="matrix(0.33835549,-0.48322172,-0.48322198,-0.33835566,677.03457,1332.2181)"
     style="fill:#cfb8ff;fill-opacity:1;stroke:#000000;stroke-width:5.08557;stroke-dasharray:none;stroke-opacity:1;shape-rendering:geometricPrecision;text-rendering:geometricPrecision" />
  <circle
     r="158.5"
     clip-path="url(#clipPath2)"
     cx="887.75"
     cy="512"
     stroke="none"
     id="circle357"
     transform="matrix(0.46792136,0,0,0.46652179,314.60281,491.14084)"
     style="fill:#f382ff;stroke:#000000;stroke-width:6.42094356;stroke-dasharray:none;stroke-opacity:1;shape-rendering:geometricPrecision;text-rendering:geometricPrecision;fill-opacity:1" />
  <text
     xml:space="preserve"
     style="font-style:normal;font-variant:normal;font-weight:normal;font-stretch:normal;font-size:21.3333px;font-family:Dialog;-inkscape-font-specification:Dialog;text-align:center;text-anchor:middle;fill:#000000;fill-opacity:1;stroke:none"
     x="730.79883"
     y="724.29749"
     id="text361"><tspan
       sodipodi:role="line"
       id="tspan359"
       x="730.79883"
       y="724.29749"
       style="font-size:21.3333px">MariaDB/</tspan><tspan
       sodipodi:role="line"
       x="730.79883"
       y="750.96411"
       id="tspan465"
       style="font-size:21.3333px">SQ-Lite</tspan></text>
  <path
     id="circle20730"
     clip-path="url(#clipPath2)"
     style="fill:#ffffb6;fill-opacity:1;stroke:#000000;stroke-width:2.44411764;stroke-dasharray:none;stroke-opacity:1;shape-rendering:geometricPrecision;text-rendering:geometricPrecision"
     d="M 1249.8503 455.93244 L 1297.8478 448.47764 A 415.5 415.5 0 0 1 1303.2496 511.99949 A 415.5 415.5 0 0 1 1261.3485 691.83678 L 1217.693 670.79032 A 366.61764 366.61765 46.499977 0 0 1227.0725 648.6542 A 366.61766 366.61763 3.1832301 0 0 1231.8834 635.75764 A 366.61764 366.61765 46.499977 0 0 1242.8534 599.95453 A 366.61766 366.61763 3.1832301 0 0 1247.2571 579.71415 A 366.61764 366.61765 46.499977 0 0 1251.5995 550.71154 A 366.61766 366.61763 3.1832301 0 0 1253.5399 523.59759 A 366.61764 366.61765 46.499977 0 0 1254.3685 511.99987 A 366.61764 366.61765 46.499977 0 0 1253.7005 502.66614 A 366.61766 366.61763 3.1832301 0 0 1251.2218 467.98798 A 366.61764 366.61765 46.499977 0 0 1249.915 456.50369 A 366.61766 366.61763 3.1832301 0 0 1249.8503 455.93244 z "
     transform="matrix(-0.91216328,0.82131551,0.8213156,0.91216336,1119.2594,-466.15046)" />
  <path
     id="path4508"
     style="fill:#42a5f5;fill-opacity:1;stroke:#000000;stroke-width:2.84605;stroke-dasharray:5.69210005,11.3842001;stroke-opacity:1;stroke-dashoffset:0"
     d="M 434.54688 741.42773 A 37.576973 37.576977 0 0 0 396.96875 779.00391 A 37.576973 37.576977 0 0 0 398.97461 790.88867 A 337.31342 337.31332 0 0 0 730 1067.3125 A 337.31342 337.31332 0 0 0 1060.2246 794.13672 A 37.576973 37.576977 0 0 0 1062.7051 780.97656 A 37.576973 37.576977 0 0 0 1025.1289 743.40039 A 37.576973 37.576977 0 0 0 987.83984 776.9375 A 262.25211 262.25122 0 0 1 730 992.25195 A 262.25211 262.25122 0 0 1 471.87305 774.77344 A 37.576973 37.576977 0 0 0 434.54688 741.42773 z " />
  <path
     id="circle20735"
     clip-path="url(#clipPath2)"
     style="fill:#ffff6a;fill-opacity:1;stroke:#000000;stroke-width:2.1868421;stroke-dasharray:none;stroke-opacity:1;shape-rendering:geometricPrecision;text-rendering:geometricPrecision"
     d="M 1254.6796 455.16421 L 1275.927 451.86525 L 1283.4513 450.69601 L 1297.7568 448.47484 A 415.5 415.5 22.5 0 1 1303.2495 512.00026 A 415.5 415.5 22.5 0 1 1262.0383 692.19702 L 1248.5794 685.70916 L 1242.3415 682.7027 L 1222.7225 673.24371 A 371.76316 371.76316 0 0 0 1259.5128 511.99955 A 371.76316 371.76316 0 0 0 1254.6796 455.16421 z "
     transform="matrix(-1.0194766,0.91794087,0.91794096,1.0194767,1165.0546,-606.87406)" />
  <text
     xml:space="preserve"
     style="font-style:normal;font-variant:normal;font-weight:normal;font-stretch:normal;font-size:26.6667px;font-family:Dialog;-inkscape-font-specification:Dialog;letter-spacing:-2px;fill:#000000;fill-opacity:1;stroke:none"
     id="text2690"><textPath
       xlink:href="#circle602"
       id="textPath18729"><tspan
         id="tspan2688"
         dx="189.72791"
         dy="82.997025">core</tspan></textPath></text>
  <text
     xml:space="preserve"
     style="font-style:normal;font-variant:normal;font-weight:normal;font-stretch:normal;font-size:16px;line-height:1;font-family:Dialog;-inkscape-font-specification:Dialog;fill:#000000;fill-opacity:1;stroke:none"
     x="631.51337"
     y="1024.7292"
     id="text499"><tspan
       sodipodi:role="line"
       x="631.51337"
       y="1024.7292"
       id="tspan497"
       style="font-style:normal;font-variant:normal;font-weight:bold;font-stretch:normal;font-size:16px;font-family:Dialog;-inkscape-font-specification:'Dialog, Bold';font-variant-ligatures:normal;font-variant-caps:normal;font-variant-numeric:normal;font-variant-east-asian:normal">core.dto’s</tspan></text>
  <path
     id="circle7314"
     clip-path="url(#clipPath2)"
     style="fill:#e3dbdb;shape-rendering:geometricPrecision;text-rendering:geometricPrecision;stroke-width:2.20229682;stroke-dasharray:none;stroke:#4d4d4d;stroke-opacity:1"
     d="m 1166.411,688.16227 a 330.34453,330.34453 0 0 1 -148.6048,127.30595 l 25.7422,60.14306 a 396.41344,396.41344 0 0 0 0,0 l 3.0167,7.04993 4.548,10.6258 a 415.5,415.5 0 0 0 187.3013,-159.67226 l -9.7483,-6.15381 -5.8972,-3.72211 z"
     transform="matrix(1.3622142,0,0,1.3622142,-479.30594,32.546286)"
     inkscape:transform-center-x="-327.422"
     inkscape:transform-center-y="379.683" />
  <!--Generated by ySVG 2.6-->
  <defs
     id="genericDefs">
    <marker
       style="overflow:visible"
       id="Arrow4"
       refX="0"
       refY="0"
       orient="auto-start-reverse"
       inkscape:stockid="Arrow4"
       markerWidth="5"
       markerHeight="6"
       viewBox="0 0 5 6"
       inkscape:isstock="true"
       inkscape:collect="always"
       preserveAspectRatio="xMidYMid">
      <path
         style="fill:context-stroke;fill-rule:evenodd;stroke:none"
         d="m 1,0 -3,3 h -2 l 3,-3 -3,-3 h 2 z"
         id="path1741" />
    </marker>
    <inkscape:perspective
       sodipodi:type="inkscape:persp3d"
       inkscape:vp_x="0 : 1200 : 1"
       inkscape:vp_y="0 : 1000 : 0"
       inkscape:vp_z="1600 : 1200 : 1"
       inkscape:persp3d-origin="800 : 933.33333 : 1"
       id="perspective929" />
    <defs
       id="defs1">
      <clipPath
         clipPathUnits="userSpaceOnUse"
         id="clipPath1">
        <path
           d="M 0,0 H 1051 V 957 H 0 Z"
           id="path551" />
      </clipPath>
      <clipPath
         clipPathUnits="userSpaceOnUse"
         id="clipPath2">
        <path
           d="m 457,81 h 1051 v 957 H 457 Z"
           id="path554" />
      </clipPath>
    </defs>
  </defs>
  <path
     id="path12501"
     style="fill:#4db2ad;fill-opacity:1;stroke:#000000;stroke-width:3;stroke-dasharray:6,12;stroke-opacity:1;stroke-dashoffset:0"
     d="m 595.88281,425.48829 a 37.5,37.5 0 0 0 -16.79884,4.05663 37.5,37.5 0 0 0 -3.47461,1.89649 337.31342,337.31332 0 0 0 -128.01171,116.09765 37.5,37.5 0 0 0 -7.60352,22.47656 37.5,37.5 0 0 0 37.5,37.49999 37.5,37.5 0 0 0 32.0918,-18.22069 262.25211,262.25122 0 0 1 103.0957,-92.86133 37.5,37.5 0 0 0 20.70118,-33.44531 37.5,37.5 0 0 0 -37.5,-37.5 z"
     inkscape:transform-center-x="193.312"
     inkscape:transform-center-y="-213.49801" />
  <path
     id="circle20740"
     clip-path="url(#clipPath2)"
     style="fill:#fff100;fill-opacity:1;stroke:#000000;stroke-width:1.97857148;stroke-dasharray:none;stroke-opacity:1;shape-rendering:geometricPrecision;text-rendering:geometricPrecision"
     d="M 1258.7086 454.52486 L 1297.7549 448.46173 A 415.5 415.5 0 0 1 1298.0841 450.25575 A 415.50003 415.49999 1.4999997 0 1 1300.8831 472.86739 A 415.5 415.5 0 0 1 1302.5107 499.7647 A 415.50003 415.49999 1.4999997 0 1 1302.5766 523.1525 A 415.5 415.5 0 0 1 1300.9783 549.55878 A 415.50003 415.49999 1.4999997 0 1 1297.708 575.79442 A 415.5 415.5 0 0 1 1293.4646 598.94908 A 415.50003 415.49999 1.4999997 0 1 1286.7477 625.64987 A 415.5 415.5 0 0 1 1280.0306 647.20459 A 415.50003 415.49999 1.4999997 0 1 1270.5556 671.98954 A 415.5 415.5 0 0 1 1261.5559 691.98717 L 1225.9612 674.8286 A 375.92858 375.92858 0 0 0 1263.6782 512.00024 A 375.92858 375.92858 0 0 0 1258.7086 454.52486 z "
     transform="matrix(-1.1267899,1.0145662,1.0145663,1.12679,1210.8498,-747.59761)" />
  <text
     xml:space="preserve"
     style="font-style:normal;font-variant:normal;font-weight:normal;font-stretch:normal;font-size:26.6667px;font-family:Dialog;-inkscape-font-specification:Dialog;fill:#000000;fill-opacity:1;stroke:none"
     id="text2704"><textPath
       xlink:href="#circle20722"
       id="textPath22661"><tspan
         id="tspan2708"
         dx="33.448357"
         dy="-17.604395">ts-lib</tspan></textPath></text>
  <text
     xml:space="preserve"
     style="font-style:normal;font-variant:normal;font-weight:normal;font-stretch:normal;font-size:26.6667px;line-height:1;font-family:Dialog;-inkscape-font-specification:Dialog;fill:#000000;fill-opacity:1;stroke:none"
     id="text2714"><textPath
       xlink:href="#circle20720"
       id="textPath22664"><tspan
         id="tspan2716"
         dy="-19.364836"
         dx="-3.5208793">ui-components</tspan></textPath></text>
  <text
     xml:space="preserve"
     style="font-style:normal;font-variant:normal;font-weight:normal;font-stretch:normal;font-size:16px;font-family:Dialog;-inkscape-font-specification:Dialog;text-align:center;text-anchor:middle;fill:#000000;fill-opacity:1;stroke:none"
     x="-511.33948"
     y="1002.954"
     id="text4079"
     transform="rotate(-50.45)"><tspan
       sodipodi:role="line"
       x="-511.33948"
       y="1002.954"
       id="tspan4081">request</tspan></text>
  <text
     xml:space="preserve"
     style="font-style:normal;font-variant:normal;font-weight:normal;font-stretch:normal;font-size:68.6788px;font-family:Constantia;-inkscape-font-specification:Constantia;fill:#000000;fill-opacity:1;stroke:none;stroke-width:0.80483"
     x="-811.33673"
     y="1040.953"
     id="text4157"
     transform="rotate(-50.755606)"><tspan
       sodipodi:role="line"
       x="-811.33673"
       y="1040.953"
       id="tspan4155"
       style="font-style:normal;font-variant:normal;font-weight:normal;font-stretch:normal;font-family:Arial;-inkscape-font-specification:Arial;stroke-width:0.80483">→</tspan></text>
  <text
     xml:space="preserve"
     style="font-style:normal;font-variant:normal;font-weight:normal;font-stretch:normal;font-size:26.6667px;font-family:Dialog;-inkscape-font-specification:Dialog;text-align:center;text-anchor:middle;fill:#000000;fill-opacity:1;stroke:none"
     x="264.10403"
     y="1299.7892"
     id="text4161"><tspan
       sodipodi:role="line"
       x="264.10403"
       y="1299.7892"
       id="tspan4159">User</tspan></text>
  <text
     xml:space="preserve"
     style="font-style:normal;font-variant:normal;font-weight:normal;font-stretch:normal;font-size:68.6788px;font-family:Constantia;-inkscape-font-specification:Constantia;fill:#4d4d4d;fill-opacity:1;stroke:none;stroke-width:0.80483"
     x="-1476.741"
     y="81.131996"
     id="text7362"
     transform="rotate(-130.75561)"><tspan
       sodipodi:role="line"
       x="-1476.741"
       y="81.131996"
       id="tspan7360"
       style="font-style:normal;font-variant:normal;font-weight:normal;font-stretch:normal;font-family:Arial;-inkscape-font-specification:Arial;fill:#4d4d4d;fill-opacity:1;stroke-width:0.80483">→</tspan></text>
  <text
     xml:space="preserve"
     style="font-style:normal;font-variant:normal;font-weight:normal;font-stretch:normal;font-size:16px;font-family:Dialog;-inkscape-font-specification:Dialog;text-align:center;text-anchor:middle;fill:#4d4d4d;fill-opacity:1;stroke:none"
     x="1430.2281"
     y="-152.33951"
     id="text7366"
     transform="rotate(53.7)"><tspan
       sodipodi:role="line"
       x="1430.2281"
       y="-152.33951"
       id="tspan7364">request</tspan></text>
  <path
     id="path1656"
     clip-path="url(#clipPath2)"
     style="fill:#e3dbdb;shape-rendering:geometricPrecision;text-rendering:geometricPrecision;stroke-width:2.20229684;stroke-dasharray:none;stroke:#4d4d4d;stroke-opacity:1"
     d="m 1166.411,688.16227 a 330.34453,330.34453 0 0 1 -148.6048,127.30595 l 25.7422,60.14306 3.0167,7.04993 4.548,10.6258 a 415.5,415.5 0 0 0 187.3013,-159.67226 l -9.7483,-6.15381 -5.8972,-3.72211 z"
     transform="matrix(0.68110708,-1.1797121,1.1797121,0.68110708,-478.66531,1428.5625)"
     inkscape:transform-center-x="-481.32752"
     inkscape:transform-center-y="-97.881613" />
  <text
     xml:space="preserve"
     style="font-style:normal;font-variant:normal;font-weight:normal;font-stretch:normal;font-size:68.6788px;font-family:Constantia;-inkscape-font-specification:Constantia;fill:#4d4d4d;fill-opacity:1;stroke:none;stroke-width:0.80483"
     x="-1026.5259"
     y="-842.64166"
     id="text1660"
     transform="rotate(169.24439)"><tspan
       sodipodi:role="line"
       x="-1026.5259"
       y="-842.64166"
       id="tspan1658"
       style="font-style:normal;font-variant:normal;font-weight:normal;font-stretch:normal;font-family:Arial;-inkscape-font-specification:Arial;fill:#4d4d4d;fill-opacity:1;stroke-width:0.80483">→</tspan></text>
  <g
     id="g1139"
     transform="translate(30,-4)">
    <rect
       style="fill:#ffffff;fill-opacity:1;stroke:#000000;stroke-width:2;stroke-dasharray:none;stroke-opacity:1"
       id="rect954"
       width="178.90378"
       height="60.171642"
       x="174.97293"
       y="1023.5189"
       ry="30.085821" />
    <text
       xml:space="preserve"
       style="font-style:normal;font-variant:normal;font-weight:normal;font-stretch:normal;font-size:26.6667px;font-family:Dialog;-inkscape-font-specification:Dialog;text-align:center;text-anchor:middle;fill:#000000;fill-opacity:1;stroke:none"
       x="264.03815"
       y="1063.6047"
       id="text958"><tspan
         sodipodi:role="line"
         id="tspan956"
         x="264.03815"
         y="1063.6047">SVWS-Client</tspan></text>
  </g>
  <text
     xml:space="preserve"
     style="font-style:normal;font-variant:normal;font-weight:normal;font-stretch:normal;font-size:24px;font-family:Dialog;-inkscape-font-specification:Dialog;text-align:center;text-anchor:middle;fill:#4d4d4d;fill-opacity:1;stroke:none"
     x="1053.2433"
     y="1109.0465"
     id="text964"><tspan
       sodipodi:role="line"
       id="tspan962"
       x="1053.2433"
       y="1109.0465">  anderer</tspan><tspan
       sodipodi:role="line"
       x="1053.2433"
       y="1142.3799"
       id="tspan1018">Client</tspan></text>
  <text
     xml:space="preserve"
     style="font-style:normal;font-variant:normal;font-weight:normal;font-stretch:normal;font-size:24px;font-family:Dialog;-inkscape-font-specification:Dialog;text-align:center;text-anchor:middle;fill:#4d4d4d;fill-opacity:1;stroke:none"
     x="1227.5364"
     y="637.30701"
     id="text1074"><tspan
       sodipodi:role="line"
       id="tspan1070"
       x="1227.5364"
       y="637.30701">anderer</tspan><tspan
       sodipodi:role="line"
       x="1227.5364"
       y="670.64038"
       id="tspan1072">Client</tspan></text>
  <text
     xml:space="preserve"
     style="font-style:normal;font-variant:normal;font-weight:normal;font-stretch:normal;font-size:16px;font-family:Dialog;-inkscape-font-specification:Dialog;text-align:center;letter-spacing:-0.8px;text-anchor:middle;fill:#000000;fill-opacity:1;stroke:none"
     x="-509.01654"
     y="1057.7362"
     id="text515"
     transform="rotate(-50.45)"><tspan
       sodipodi:role="line"
       x="-509.41653"
       y="1057.7362"
       id="tspan513">response</tspan></text>
  <text
     xml:space="preserve"
     style="font-style:normal;font-variant:normal;font-weight:normal;font-stretch:normal;font-size:68.6788px;font-family:Constantia;-inkscape-font-specification:Constantia;fill:#4d4d4d;fill-opacity:1;stroke:none;stroke-width:0.80483"
     x="1408.2096"
     y="-64.617874"
     id="text519"
     transform="rotate(49.24439)"><tspan
       sodipodi:role="line"
       x="1408.2096"
       y="-64.617874"
       id="tspan517"
       style="font-style:normal;font-variant:normal;font-weight:normal;font-stretch:normal;font-family:Arial;-inkscape-font-specification:Arial;fill:#4d4d4d;fill-opacity:1;stroke-width:0.80483">→</tspan></text>
  <text
     xml:space="preserve"
     style="font-style:normal;font-variant:normal;font-weight:normal;font-stretch:normal;font-size:16px;font-family:Dialog;-inkscape-font-specification:Dialog;text-align:center;letter-spacing:-0.8px;text-anchor:middle;fill:#4d4d4d;fill-opacity:1;stroke:none"
     x="1440.8135"
     y="-110.65855"
     id="text523"
     transform="rotate(49.7)"><tspan
       sodipodi:role="line"
       x="1440.4135"
       y="-110.65855"
       id="tspan521">response</tspan></text>
  <text
     xml:space="preserve"
     style="font-style:normal;font-variant:normal;font-weight:normal;font-stretch:normal;font-size:16px;font-family:Dialog;-inkscape-font-specification:Dialog;text-align:center;text-anchor:middle;fill:#4d4d4d;fill-opacity:1;stroke:none"
     x="956.65039"
     y="863.78717"
     id="text527"
     transform="rotate(-13.1)"><tspan
       sodipodi:role="line"
       x="956.65039"
       y="863.78717"
       id="tspan525">response</tspan></text>
  <text
     xml:space="preserve"
     style="font-style:normal;font-variant:normal;font-weight:normal;font-stretch:normal;font-size:16px;font-family:Dialog;-inkscape-font-specification:Dialog;text-align:center;text-anchor:middle;fill:#4d4d4d;fill-opacity:1;stroke:none"
     x="1017.0807"
     y="854.71991"
     id="text531"
     transform="rotate(-9.1)"><tspan
       sodipodi:role="line"
       x="1017.0807"
       y="854.71991"
       id="tspan529">request</tspan></text>
  <text
     xml:space="preserve"
     style="font-style:normal;font-variant:normal;font-weight:normal;font-stretch:normal;font-size:68.6788px;font-family:Arial;-inkscape-font-specification:Arial;fill:#4d4d4d;fill-opacity:1;stroke:none;stroke-width:0.80483"
     x="944.7608"
     y="876.88721"
     id="text535"
     transform="rotate(-11.75561)"
     inkscape:export-filename="Zwiebelmodell SVWS-Server und SVWS-Client.png"
     inkscape:export-xdpi="52.593037"
     inkscape:export-ydpi="52.593037"><tspan
       sodipodi:role="line"
       x="944.7608"
       y="876.88721"
       id="tspan533"
       style="font-style:normal;font-variant:normal;font-weight:normal;font-stretch:normal;font-family:Arial;-inkscape-font-specification:Arial;fill:#4d4d4d;fill-opacity:1;stroke-width:0.80483">→</tspan></text>
  <text
     xml:space="preserve"
     style="font-style:normal;font-variant:normal;font-weight:normal;font-stretch:normal;font-size:16px;line-height:1;font-family:Dialog;-inkscape-font-specification:Dialog;fill:#000000;fill-opacity:1;stroke:none"
     x="336.92944"
     y="847.7926"
     id="text477"
     transform="rotate(-12.541306)"><tspan
       sodipodi:role="line"
       x="336.92944"
       y="847.7926"
       id="tspan475"
       style="font-style:normal;font-variant:normal;font-weight:bold;font-stretch:normal;font-size:16px;font-family:Dialog;-inkscape-font-specification:'Dialog Bold'">db.dto’s</tspan></text>
  <text
     xml:space="preserve"
     style="font-style:normal;font-variant:normal;font-weight:normal;font-stretch:normal;font-size:16px;line-height:1;font-family:Dialog;-inkscape-font-specification:Dialog;fill:#000000;fill-opacity:1;stroke:none"
     x="481.66086"
     y="1098.7397"
     id="text491"><tspan
       sodipodi:role="line"
       x="481.66086"
       y="1098.7397"
       id="tspan489"
       style="font-style:normal;font-variant:normal;font-weight:bold;font-stretch:normal;font-size:16px;font-family:Dialog;-inkscape-font-specification:'Dialog Bold'">core.dto’s (json)</tspan></text>
  <text
     xml:space="preserve"
     style="font-style:normal;font-variant:normal;font-weight:normal;font-stretch:normal;font-size:13.3333px;font-family:Dialog;-inkscape-font-specification:Dialog;text-align:center;letter-spacing:1px;text-anchor:middle;fill:#000000;fill-opacity:1;stroke:none"
     id="text930"><textPath
       xlink:href="#circle924"
       startOffset="50%"
       id="textPath18629"><tspan
         id="tspan928"
         style="font-size:13.3333px"
         dy="-5.9557729">eclipse-link</tspan></textPath></text>
  <path
     id="path10222"
     style="fill:#4db2ad;fill-opacity:1;stroke:#000000;stroke-width:3;stroke-dasharray:6,12;stroke-opacity:1;stroke-dashoffset:0"
     d="m 877.06078,431.52354 a 37.5,37.5 0 0 0 -13.90565,-10.26111 37.5,37.5 0 0 0 -3.68623,-1.44266 337.31342,337.31332 50 0 0 -171.2203,-23.43653 37.5,37.5 0 0 0 -22.10549,8.62302 37.5,37.5 0 0 0 -4.62213,52.8312 37.5,37.5 0 0 0 34.58607,12.8717 262.25211,262.25122 50 0 1 137.40454,19.28578 37.5,37.5 0 0 0 38.92706,-5.64021 37.5,37.5 0 0 0 4.62213,-52.8312 z"
     inkscape:transform-center-x="-39.290405"
     inkscape:transform-center-y="-286.54511" />
  <path
     id="path12503"
     style="fill:#4db2ad;fill-opacity:1;stroke:#000000;stroke-width:3;stroke-dasharray:6, 12;stroke-opacity:1;stroke-dashoffset:0"
     d="m 1056.3224,664.9698 c 1.2385,-5.70627 1.1274,-11.62292 -0.3246,-17.27865 -0.2993,-1.28605 -0.6662,-2.55539 -1.0994,-3.80273 -15.0272,-56.6229 -44.5421,-108.35592 -85.63892,-150.10545 -5.25765,-6.18506 -12.38037,-10.49702 -20.29807,-12.28809 -31.76452,-9.00193 -70.74492,11.69541 -76.36771,46.73756 -2.82176,12.84612 -0.41757,26.51663 9.13259,35.55982 36.34522,34.23938 55.58349,70.97081 68.34615,120.75079 3.45355,13.7357 16.06147,24.06877 29.88224,27.16432 36.09782,7.53611 69.44232,-8.80759 76.36772,-46.73757 z"
     inkscape:transform-center-x="-250.26765"
     inkscape:transform-center-y="-142.52031"
     sodipodi:nodetypes="cccccccccc" />
  <text
     xml:space="preserve"
     style="font-style:normal;font-variant:normal;font-weight:normal;font-stretch:normal;font-size:58.6667px;font-family:Dialog;-inkscape-font-specification:Dialog;text-align:center;text-anchor:middle;fill:#000000;fill-opacity:1;stroke:none"
     x="-508.20178"
     y="1031.5625"
     id="text19293"
     transform="rotate(-50.45)"><tspan
       sodipodi:role="line"
       x="-508.20178"
       y="1031.5625"
       id="tspan19291"
       style="font-style:normal;font-variant:normal;font-weight:normal;font-stretch:normal;font-size:58.6667px;font-family:Arial;-inkscape-font-specification:Arial">→</tspan></text>
  <text
     xml:space="preserve"
     style="font-style:normal;font-variant:normal;font-weight:normal;font-stretch:normal;font-size:58.6667px;font-family:Dialog;-inkscape-font-specification:Dialog;text-align:center;text-anchor:middle;fill:#000000;fill-opacity:1;stroke:none"
     x="511.77817"
     y="-1019.2485"
     id="text19297"
     transform="rotate(129.55)"><tspan
       sodipodi:role="line"
       x="511.77817"
       y="-1019.2485"
       id="tspan19295"
       style="font-style:normal;font-variant:normal;font-weight:normal;font-stretch:normal;font-size:58.6667px;font-family:Arial;-inkscape-font-specification:Arial">→</tspan></text>
  <text
     xml:space="preserve"
     style="font-style:normal;font-variant:normal;font-weight:normal;font-stretch:normal;font-size:26.6667px;line-height:1;font-family:Dialog;-inkscape-font-specification:Dialog;fill:#000000;fill-opacity:1;stroke:none"
     id="text19418"><textPath
       xlink:href="#circle19409"
       id="textPath19416"><tspan
         id="tspan19414"
         dx="344.60861">module-PDF</tspan></textPath></text>
  <text
     xml:space="preserve"
     style="font-style:normal;font-variant:normal;font-weight:normal;font-stretch:normal;font-size:26.6667px;line-height:1;font-family:Dialog;-inkscape-font-specification:Dialog;fill:#000000;fill-opacity:1;stroke:none"
     id="text19526"><textPath
       xlink:href="#circle19409"
       id="textPath19524"><tspan
         id="tspan19522"
         dx="606.60645"
         dy="15.34217">module-DAV</tspan></textPath></text>
  <text
     xml:space="preserve"
     style="font-style:normal;font-variant:normal;font-weight:normal;font-stretch:normal;font-size:26.6667px;line-height:1;font-family:Dialog;-inkscape-font-specification:Dialog;fill:#000000;fill-opacity:1;stroke:none"
     id="text19398"><textPath
       xlink:href="#circle19409"
       id="textPath19411"
       dx="77.446365">andere Module<tspan
   id="tspan19396" /></textPath></text>
  <text
     xml:space="preserve"
     style="font-style:normal;font-variant:normal;font-weight:normal;font-stretch:normal;font-size:26.6667px;line-height:1;font-family:Dialog;-inkscape-font-specification:Dialog;fill:#000000;fill-opacity:1;stroke:none"
     id="text21931"><textPath
       xlink:href="#circle20718"
       id="textPath22667"><tspan
         id="tspan21929"
         dx="25.526379"
         dy="-21.125267">webclient</tspan></textPath></text>
  <path
     style="fill:none;fill-opacity:1;stroke:#000000;stroke-width:3;stroke-dasharray:3,6;stroke-dashoffset:0;stroke-opacity:1;marker-start:url(#Arrow4);marker-end:url(#Arrow4)"
     d="m 653.21866,769.31202 c 0,0 -58.82064,-37.14987 -122.28501,-13.9312 -63.46437,23.21867 -69.65602,199.68058 -69.65602,199.68058"
     id="path23187"
     sodipodi:nodetypes="csc" />
</svg>
